# xmcd
#
# Track frame offsets:
#	150
#	18342
#	36740
#	51442
#	73532
#	89787
#	117390
#	137710
#	161220
#	181495
#	205650
#	226590
#	231409
#	248287
#	263797
#
# Disc length: 3707 seconds
#
# Revision: 0
# Processed by: cddbd v1.5PL3 Copyright (c) Steve Scherf et al.
# Submitted via: dBpowerAMP V4.0
#
DISCID=d60e790f
DTITLE=Jack Howard - Secrets and White Lies
DYEAR=2001
DGENRE=AlternRock
TTITLE0=You Will Find
TTITLE1=Great White Whale
TTITLE2=Heard You Cry
TTITLE3=Break that Spell
TTITLE4=Fear of Flying
TTITLE5=Restlessness
TTITLE6=Sail Upon Her Smile
TTITLE7=Secrets and White Lies
TTITLE8=East is West
TTITLE9=The Wind Blows Hard
TTITLE10=She's Gone
TTITLE11=Sleepless in Elwood
TTITLE12=Mr.Twilight
TTITLE13=Home
TTITLE14=Frankenstein
EXTD=Jack Howard - Secrets and White Lies\nLaughing Outlaw Records - www.laughingoutlaw.com.au\nNSW Australia (c) 2001\nJack is the ex writer, trumpet, keyboards and support vocalist with great oz band Hunters and Collectors
EXTT0=
EXTT1=
EXTT2=
EXTT3=
EXTT4=
EXTT5=
EXTT6=
EXTT7=
EXTT8=
EXTT9=
EXTT10=
EXTT11=
EXTT12=
EXTT13=
EXTT14=
PLAYORDER=
